<svg id="svg" version="1.1" xmlns="http://www.w3.org/2000/svg" xmlns:xlink="http://www.w3.org/1999/xlink" width="400" height="218.86792452830187" viewBox="0, 0, 400,218.86792452830187"><g id="svgg"><path id="path0" d="M195.470 19.381 C 195.408 19.444,193.467 19.638,191.159 19.812 C 188.850 19.986,186.594 20.226,186.146 20.345 C 185.698 20.464,184.454 20.668,183.382 20.800 C 182.310 20.931,181.258 21.132,181.046 21.246 C 180.833 21.359,179.967 21.551,179.122 21.671 C 178.276 21.790,177.259 22.025,176.860 22.192 C 176.462 22.359,175.545 22.646,174.822 22.829 C 172.379 23.451,171.041 23.864,170.413 24.192 C 170.068 24.371,169.665 24.519,169.517 24.520 C 169.251 24.521,166.901 25.386,165.627 25.953 C 165.265 26.113,164.280 26.541,163.437 26.905 C 162.594 27.268,161.514 27.767,161.037 28.014 C 160.560 28.260,160.039 28.462,159.879 28.462 C 159.719 28.462,159.321 28.638,158.995 28.854 C 157.964 29.535,157.546 29.775,156.786 30.123 C 156.379 30.309,155.409 30.849,154.629 31.323 C 153.850 31.796,153.169 32.184,153.116 32.184 C 153.063 32.184,152.753 32.368,152.427 32.593 C 152.101 32.818,150.960 33.581,149.893 34.290 C 146.183 36.751,145.751 37.047,145.375 37.379 C 145.194 37.538,144.111 38.413,142.967 39.322 C 137.024 44.044,129.411 52.138,125.999 57.361 C 125.638 57.914,125.213 58.510,125.056 58.685 C 124.535 59.264,122.618 62.283,122.612 62.535 C 122.608 62.671,122.452 62.909,122.264 63.065 C 122.077 63.220,121.783 63.651,121.612 64.022 C 121.292 64.715,121.043 65.146,120.380 66.152 C 120.169 66.471,119.934 66.984,119.857 67.293 C 119.779 67.601,119.583 67.963,119.420 68.098 C 119.258 68.233,119.009 68.705,118.867 69.147 C 118.725 69.589,118.481 70.099,118.325 70.279 C 118.169 70.460,117.975 70.874,117.894 71.201 C 117.812 71.527,117.614 71.903,117.453 72.037 C 117.292 72.170,117.093 72.593,117.011 72.976 C 116.929 73.359,116.784 73.771,116.688 73.892 C 116.449 74.192,115.322 77.034,114.041 80.569 C 113.208 82.868,111.551 88.988,111.018 91.735 C 110.568 94.057,109.988 97.838,109.641 100.712 C 109.341 103.206,109.342 116.780,109.643 118.993 C 109.774 119.956,110.036 121.927,110.226 123.372 C 110.415 124.817,110.706 126.492,110.871 127.094 C 111.036 127.696,111.269 128.779,111.388 129.502 C 111.600 130.782,112.494 134.315,112.941 135.632 C 113.063 135.993,113.259 136.634,113.376 137.055 C 113.885 138.886,115.661 143.640,116.729 146.032 C 118.179 149.278,120.642 154.020,122.562 157.263 C 128.183 166.755,138.396 177.582,147.902 184.127 C 149.537 185.252,151.700 186.683,152.198 186.968 C 152.519 187.151,153.159 187.528,153.621 187.804 C 155.038 188.653,157.879 190.188,159.606 191.039 C 160.509 191.484,161.606 192.032,162.044 192.257 C 162.482 192.482,162.967 192.666,163.121 192.666 C 163.276 192.666,163.558 192.798,163.748 192.961 C 163.939 193.123,164.537 193.407,165.079 193.593 C 165.621 193.778,166.606 194.149,167.269 194.417 C 167.931 194.685,168.916 195.048,169.458 195.222 C 170.000 195.397,170.938 195.731,171.542 195.964 C 172.147 196.197,172.817 196.388,173.031 196.388 C 173.245 196.388,173.690 196.527,174.020 196.697 C 174.349 196.867,175.009 197.071,175.486 197.150 C 175.964 197.228,176.995 197.475,177.778 197.698 C 179.629 198.224,183.175 198.959,185.112 199.218 C 185.955 199.330,187.630 199.578,188.834 199.769 C 193.642 200.529,208.259 200.408,211.823 199.579 C 212.545 199.411,213.924 199.203,214.888 199.118 C 215.851 199.032,217.033 198.832,217.515 198.672 C 217.997 198.512,219.001 198.284,219.747 198.165 C 220.493 198.046,221.292 197.848,221.522 197.725 C 221.752 197.601,222.608 197.394,223.425 197.263 C 224.242 197.133,225.116 196.882,225.367 196.707 C 225.618 196.531,226.022 196.387,226.267 196.386 C 226.511 196.384,227.646 196.051,228.790 195.644 C 229.934 195.237,231.215 194.784,231.637 194.637 C 232.058 194.490,232.767 194.183,233.213 193.955 C 233.658 193.728,234.150 193.538,234.307 193.534 C 234.464 193.531,235.085 193.285,235.687 192.989 C 236.289 192.693,236.948 192.450,237.152 192.449 C 237.355 192.448,237.575 192.360,237.641 192.254 C 237.706 192.149,238.968 191.451,240.445 190.703 C 241.922 189.956,243.623 189.063,244.226 188.719 C 244.828 188.374,245.468 188.020,245.649 187.932 C 246.036 187.743,248.540 186.151,250.246 185.009 C 252.880 183.247,253.647 182.692,253.815 182.430 C 253.911 182.280,254.097 182.157,254.228 182.157 C 254.358 182.157,254.685 181.935,254.952 181.664 C 255.220 181.393,255.675 180.996,255.963 180.781 C 258.029 179.238,257.888 179.358,261.283 176.245 C 265.388 172.481,270.811 166.357,273.303 162.671 C 273.751 162.009,274.584 160.788,275.154 159.958 C 276.474 158.036,277.096 157.019,277.401 156.285 C 277.535 155.963,277.785 155.646,277.957 155.580 C 278.129 155.514,278.270 155.273,278.270 155.045 C 278.270 154.816,278.455 154.394,278.680 154.107 C 278.905 153.820,279.450 152.846,279.890 151.943 C 280.330 151.040,280.786 150.153,280.904 149.973 C 281.021 149.792,281.215 149.398,281.335 149.097 C 281.455 148.796,281.646 148.402,281.760 148.221 C 282.123 147.642,283.087 145.411,283.087 145.149 C 283.087 145.009,283.231 144.634,283.407 144.314 C 283.819 143.564,285.055 140.385,285.065 140.049 C 285.069 139.908,285.263 139.398,285.495 138.916 C 285.728 138.435,285.922 137.893,285.926 137.712 C 285.930 137.531,286.126 136.793,286.361 136.070 C 287.106 133.785,287.909 130.832,287.909 130.378 C 287.909 130.137,288.105 129.315,288.344 128.552 C 288.584 127.789,288.783 126.754,288.787 126.253 C 288.792 125.752,288.939 124.751,289.115 124.028 C 290.350 118.961,290.347 99.782,289.111 95.619 C 288.929 95.005,288.779 94.087,288.779 93.579 C 288.779 93.072,288.593 92.031,288.364 91.266 C 288.136 90.500,287.888 89.431,287.813 88.889 C 287.739 88.347,287.493 87.313,287.267 86.590 C 286.504 84.149,285.937 82.215,285.791 81.554 C 285.711 81.193,285.522 80.701,285.373 80.460 C 285.223 80.219,285.030 79.677,284.944 79.256 C 284.857 78.834,284.680 78.292,284.549 78.051 C 284.327 77.643,284.175 77.262,283.202 74.658 C 283.000 74.116,282.694 73.517,282.523 73.327 C 282.351 73.137,282.211 72.852,282.211 72.695 C 282.211 72.406,279.309 66.545,278.359 64.915 C 276.856 62.336,276.561 61.848,275.972 60.969 C 275.731 60.610,275.435 60.157,275.315 59.962 C 274.447 58.561,272.872 56.346,271.887 55.142 C 271.244 54.355,270.520 53.438,270.279 53.104 C 270.038 52.770,269.725 52.374,269.583 52.223 C 269.440 52.073,268.911 51.468,268.405 50.879 C 267.900 50.290,266.785 49.054,265.927 48.131 C 265.070 47.209,264.110 46.175,263.794 45.833 C 263.479 45.491,263.035 45.065,262.809 44.888 C 262.583 44.710,261.658 43.872,260.754 43.027 C 257.533 40.013,253.225 36.609,249.699 34.292 C 249.217 33.975,248.631 33.569,248.396 33.388 C 248.160 33.207,247.847 33.060,247.700 33.060 C 247.552 33.060,247.296 32.925,247.131 32.760 C 246.966 32.595,246.500 32.274,246.095 32.048 C 245.690 31.822,244.907 31.379,244.354 31.064 C 242.382 29.941,236.821 27.148,236.557 27.148 C 236.409 27.148,236.174 27.011,236.034 26.843 C 235.895 26.675,235.459 26.477,235.065 26.403 C 234.671 26.329,233.964 26.073,233.494 25.833 C 233.023 25.593,232.533 25.397,232.403 25.397 C 232.273 25.397,231.781 25.200,231.308 24.959 C 230.836 24.718,230.300 24.521,230.117 24.521 C 229.934 24.521,229.290 24.330,228.685 24.097 C 228.081 23.864,226.749 23.428,225.725 23.128 C 224.702 22.827,223.175 22.376,222.332 22.125 C 221.489 21.874,220.525 21.670,220.190 21.672 C 219.855 21.673,219.226 21.527,218.793 21.346 C 218.359 21.164,217.205 20.916,216.227 20.793 C 215.250 20.670,213.957 20.469,213.355 20.346 C 212.753 20.223,210.832 20.030,209.086 19.916 C 207.340 19.802,205.436 19.609,204.855 19.488 C 203.782 19.263,195.680 19.171,195.470 19.381 M237.504 59.294 C 237.678 59.556,237.906 59.770,238.011 59.770 C 238.115 59.770,238.500 60.090,238.865 60.482 C 240.659 62.403,241.776 63.492,241.951 63.492 C 242.058 63.492,242.146 63.581,242.146 63.690 C 242.146 63.847,245.605 67.388,246.793 68.447 C 246.946 68.584,247.593 69.249,248.230 69.925 C 248.867 70.601,249.483 71.155,249.599 71.155 C 249.714 71.155,249.808 71.299,249.808 71.476 C 249.808 71.652,249.992 71.895,250.217 72.015 C 251.112 72.494,251.032 74.867,250.107 75.288 C 248.361 76.084,248.486 76.174,240.888 68.637 L 233.935 61.740 233.947 60.556 C 233.962 58.885,234.256 58.606,235.881 58.724 C 236.917 58.799,237.254 58.917,237.504 59.294 M175.315 61.466 C 175.473 61.673,175.590 62.475,175.591 63.370 C 175.596 65.532,175.719 65.870,176.543 65.988 C 179.153 66.363,182.283 67.115,182.923 67.521 C 183.280 67.747,185.127 68.309,185.516 68.309 C 185.615 68.309,186.340 67.179,186.921 66.119 C 187.689 64.718,188.973 64.042,189.389 64.820 C 189.666 65.338,189.661 66.932,189.382 67.104 C 188.092 67.901,187.995 70.057,189.207 70.981 C 190.058 71.630,193.154 74.727,194.072 75.847 C 194.904 76.863,195.416 76.848,197.315 75.753 C 199.086 74.732,199.325 74.698,199.786 75.401 C 200.466 76.439,199.964 77.293,198.100 78.272 C 196.563 79.078,196.306 79.551,196.837 80.592 C 197.072 81.052,197.263 81.607,197.263 81.825 C 197.263 82.044,197.407 82.428,197.583 82.679 C 197.758 82.930,198.009 83.804,198.139 84.621 C 198.270 85.438,198.471 86.282,198.586 86.498 C 198.990 87.252,198.833 89.074,198.303 89.797 C 198.032 90.167,192.308 95.975,185.583 102.706 L 173.356 114.943 172.297 114.943 C 171.715 114.943,170.984 114.846,170.674 114.728 C 170.363 114.610,169.514 114.417,168.786 114.300 C 167.568 114.104,165.088 113.269,164.131 112.733 C 163.571 112.419,162.724 113.011,162.308 114.006 C 162.129 114.436,161.841 114.928,161.670 115.100 C 161.498 115.271,161.357 115.501,161.357 115.609 C 161.357 115.718,161.050 115.966,160.673 116.161 C 159.265 116.889,158.704 114.796,159.843 113.066 C 160.917 111.434,160.858 110.973,159.431 109.839 C 157.704 108.468,157.066 107.844,155.580 106.076 C 154.130 104.351,153.518 103.907,153.086 104.265 C 151.689 105.425,149.594 106.087,148.933 105.578 L 148.441 105.199 148.908 104.256 C 149.248 103.568,149.624 103.196,150.302 102.877 C 150.813 102.637,151.457 102.200,151.734 101.905 L 152.238 101.369 151.215 98.249 C 150.652 96.533,150.129 94.537,150.052 93.815 C 149.835 91.772,149.795 91.735,147.793 91.735 C 145.716 91.735,145.455 91.649,145.026 90.819 C 144.447 89.701,145.726 88.948,148.272 88.911 C 149.931 88.886,149.798 89.047,150.184 86.590 C 150.432 85.013,151.205 82.140,151.474 81.799 C 152.545 80.443,152.201 79.129,150.531 78.186 C 148.772 77.193,148.316 76.299,149.075 75.327 L 149.492 74.791 150.444 75.203 C 150.967 75.429,151.608 75.802,151.867 76.030 C 152.479 76.570,153.981 76.784,154.318 76.379 C 154.455 76.215,154.923 75.638,155.357 75.096 C 156.435 73.752,158.290 71.812,158.497 71.812 C 158.590 71.812,158.926 71.571,159.244 71.276 C 159.562 70.981,159.977 70.654,160.166 70.548 C 160.718 70.239,160.614 69.071,159.949 68.111 C 158.997 66.737,158.984 64.368,159.929 64.368 C 160.388 64.368,161.977 66.044,162.339 66.910 C 162.912 68.281,163.956 68.511,165.588 67.626 C 166.327 67.225,169.714 66.328,170.993 66.194 C 172.772 66.008,172.798 65.978,172.917 63.895 C 173.069 61.244,174.239 60.058,175.315 61.466 M228.188 81.615 C 241.784 95.243,241.242 94.584,239.956 95.929 C 239.595 96.307,239.299 96.701,239.299 96.803 C 239.299 97.742,237.417 96.907,235.933 95.311 C 235.075 94.388,234.030 93.329,233.609 92.957 C 229.775 89.570,212.370 71.721,212.370 71.178 C 212.370 69.961,214.295 68.407,215.216 68.880 C 215.517 69.035,221.355 74.765,228.188 81.615 M239.849 73.400 C 239.667 73.502,239.518 73.682,239.518 73.801 C 239.518 73.921,237.977 75.547,236.094 77.415 L 232.669 80.812 230.813 78.939 C 229.793 77.909,228.874 77.066,228.771 77.066 C 228.116 77.066,234.845 69.830,235.875 69.426 C 236.445 69.203,240.357 73.116,239.849 73.400 M230.104 95.137 C 230.104 95.960,186.227 139.389,185.264 139.518 C 183.665 139.732,182.703 139.482,181.790 138.615 C 179.751 136.680,179.966 136.645,177.204 139.354 C 173.951 142.545,174.139 142.419,172.595 142.419 L 171.213 142.419 169.209 140.416 C 166.009 137.216,166.083 136.172,169.774 132.470 C 172.505 129.730,172.570 129.513,171.108 127.966 C 169.348 126.102,169.372 123.942,171.175 122.140 L 172.236 121.078 175.938 124.797 L 179.639 128.516 180.780 128.516 C 183.597 128.517,183.055 126.720,179.027 122.701 C 174.481 118.165,174.768 118.522,175.275 118.041 C 175.508 117.820,176.157 117.145,176.718 116.541 C 178.400 114.729,178.270 114.680,182.214 118.615 L 185.665 122.058 186.857 122.058 C 187.793 122.058,188.120 121.964,188.380 121.620 C 189.168 120.577,188.852 120.085,184.768 115.989 C 180.832 112.042,180.925 112.329,182.926 110.342 C 184.857 108.424,184.280 108.207,188.563 112.463 C 192.776 116.648,194.129 117.257,194.711 115.228 C 195.077 113.950,194.738 113.437,191.107 109.780 C 186.918 105.560,186.947 106.112,190.722 102.561 C 191.045 102.257,191.419 102.567,194.814 105.957 L 198.552 109.688 199.615 109.688 C 200.939 109.688,201.204 109.430,201.204 108.144 L 201.204 107.125 197.459 103.366 L 193.713 99.607 195.312 97.970 C 197.364 95.868,197.093 95.788,200.897 99.619 C 204.407 103.154,205.108 103.601,206.506 103.200 C 208.491 102.631,207.900 101.353,203.702 97.138 C 199.758 93.179,199.813 93.345,201.802 91.414 C 203.704 89.567,203.332 89.425,207.517 93.594 C 211.782 97.843,213.110 98.444,213.574 96.335 C 213.869 94.992,213.551 94.513,209.965 90.890 C 205.993 86.877,206.065 87.077,207.951 85.316 C 208.619 84.692,209.329 84.025,209.528 83.834 C 209.862 83.514,210.034 83.632,211.697 85.312 C 212.691 86.316,213.587 87.137,213.689 87.137 C 213.790 87.137,213.936 87.334,214.012 87.575 C 214.088 87.816,214.292 88.013,214.465 88.013 C 214.637 88.013,214.778 88.105,214.778 88.218 C 214.778 88.884,217.319 90.859,218.177 90.859 C 221.336 90.859,220.831 89.194,216.282 84.611 C 212.336 80.635,212.518 80.897,213.152 80.092 C 214.152 78.821,214.042 78.738,222.386 87.090 C 226.631 91.339,230.104 94.960,230.104 95.137 M247.716 91.127 C 248.172 91.778,248.145 92.496,247.629 93.457 C 247.393 93.895,247.108 94.613,246.995 95.053 L 246.790 95.853 248.614 97.319 C 249.616 98.126,251.054 99.571,251.809 100.531 C 253.373 102.520,253.452 102.538,255.824 101.452 C 257.389 100.735,258.201 100.918,258.308 102.011 C 258.393 102.877,257.750 103.666,256.805 103.855 C 255.440 104.128,254.351 105.050,254.486 105.818 C 254.793 107.557,254.863 110.395,254.641 112.096 L 254.398 113.957 255.004 114.453 C 255.338 114.725,255.955 115.047,256.377 115.169 C 258.141 115.677,259.061 117.340,257.909 117.940 C 257.249 118.285,256.415 118.139,255.015 117.433 C 253.450 116.645,253.275 116.710,251.849 118.619 C 251.021 119.728,249.934 120.817,248.745 121.731 L 246.916 123.138 247.048 124.104 C 247.121 124.636,247.378 125.390,247.619 125.779 C 248.417 127.071,247.965 128.517,246.763 128.517 C 246.342 128.517,245.430 127.650,245.430 127.249 C 245.430 126.911,244.636 125.343,244.181 124.781 C 243.933 124.475,243.668 124.471,241.703 124.738 C 239.837 124.991,239.189 124.990,237.428 124.733 C 234.966 124.373,234.718 124.472,234.137 126.053 C 233.070 128.954,231.139 129.559,231.139 126.993 C 231.139 126.561,231.349 125.795,231.607 125.291 C 232.422 123.692,232.260 123.067,230.780 122.105 C 229.151 121.046,228.151 120.041,227.000 118.302 C 225.945 116.710,225.784 116.665,223.981 117.475 C 222.153 118.295,220.826 118.178,220.731 117.189 C 220.644 116.289,221.468 115.466,222.791 115.133 C 224.253 114.765,224.720 114.119,224.541 112.708 C 224.182 109.883,224.161 108.987,224.415 107.476 L 224.687 105.867 228.638 101.866 C 233.097 97.351,233.001 97.398,234.585 98.930 C 235.241 99.564,236.193 100.199,236.937 100.499 L 238.187 101.004 239.492 100.485 C 241.853 99.547,244.092 96.966,244.425 94.800 C 244.508 94.258,244.703 93.618,244.859 93.377 C 245.014 93.136,245.214 92.644,245.302 92.282 C 245.659 90.820,247.039 90.160,247.716 91.127 M211.605 120.591 C 211.967 120.920,212.731 121.779,213.304 122.500 C 213.876 123.220,214.446 123.933,214.570 124.083 C 214.880 124.459,215.761 124.427,216.092 124.028 C 216.242 123.848,216.487 123.700,216.637 123.700 C 216.786 123.700,217.144 123.518,217.431 123.296 C 218.111 122.770,219.350 122.530,219.736 122.850 C 220.493 123.479,219.874 125.073,218.689 125.547 C 218.224 125.734,217.843 125.962,217.843 126.055 C 217.843 126.148,217.622 126.321,217.351 126.441 C 216.715 126.722,216.718 128.262,217.357 129.522 C 217.596 129.992,217.863 130.811,217.951 131.341 C 218.040 131.870,218.236 132.609,218.387 132.983 C 218.538 133.356,218.727 134.246,218.806 134.961 C 219.009 136.772,219.096 136.836,221.352 136.836 L 223.274 136.836 223.704 137.566 L 224.135 138.296 223.460 138.880 C 222.845 139.411,222.622 139.464,220.964 139.464 C 218.926 139.464,219.035 139.373,218.747 141.325 C 218.485 143.099,217.854 145.509,217.367 146.593 C 217.148 147.083,216.968 147.630,216.968 147.809 C 216.968 147.987,216.861 148.240,216.730 148.371 C 216.382 148.719,217.048 149.890,217.685 150.050 C 218.776 150.324,220.033 151.463,220.033 152.178 C 220.033 154.036,219.011 154.055,216.426 152.245 C 215.474 151.578,214.685 151.848,213.656 153.193 C 212.317 154.942,211.084 156.201,209.861 157.071 C 208.002 158.393,207.746 159.760,209.174 160.740 C 209.294 160.822,209.432 161.516,209.480 162.282 C 209.656 165.047,208.042 164.643,206.473 161.528 C 206.308 161.201,205.964 160.737,205.708 160.496 L 205.242 160.059 204.044 160.619 C 202.170 161.494,198.697 162.353,196.677 162.441 C 196.005 162.470,195.731 163.147,195.731 164.775 C 195.731 168.816,193.262 168.726,193.032 164.677 C 192.918 162.681,192.755 162.513,190.691 162.259 C 189.790 162.148,188.659 161.904,188.177 161.717 C 187.696 161.530,187.085 161.372,186.821 161.367 C 186.556 161.362,185.876 161.111,185.310 160.810 C 183.803 160.009,182.157 160.614,182.157 161.970 C 182.157 162.848,180.158 164.366,179.584 163.923 C 179.214 163.637,179.243 161.816,179.629 161.138 C 179.800 160.837,180.141 160.209,180.386 159.741 L 180.831 158.891 180.384 158.263 C 180.138 157.918,179.852 157.635,179.749 157.635 C 179.499 157.635,175.622 153.778,174.837 152.748 C 174.004 151.657,171.282 152.119,170.430 153.497 C 170.208 153.857,169.260 153.705,169.028 153.271 C 168.419 152.134,169.281 150.720,170.911 150.182 C 172.072 149.798,172.411 149.061,171.963 147.888 C 171.453 146.555,171.623 146.251,172.878 146.251 C 174.392 146.251,175.952 145.406,177.924 143.520 C 179.754 141.769,179.887 141.707,180.799 142.175 C 183.111 143.361,186.346 143.281,188.152 141.994 C 188.500 141.746,193.672 136.692,199.646 130.761 C 205.621 124.831,210.608 119.982,210.728 119.985 C 210.848 119.988,211.243 120.261,211.605 120.591 " stroke="none" fill="#8fc7eb" fill-rule="evenodd"></path><path id="path1" d="M0.000 109.469 L 0.000 218.938 200.000 218.938 L 400.000 218.938 400.000 109.469 L 400.000 0.000 200.000 0.000 L 0.000 0.000 0.000 109.469 M204.971 19.036 C 205.247 19.150,207.345 19.397,209.633 19.585 C 211.921 19.772,214.277 20.073,214.868 20.253 C 215.459 20.433,216.395 20.585,216.948 20.590 C 217.501 20.595,218.347 20.751,218.829 20.936 C 219.310 21.121,220.456 21.390,221.375 21.535 C 222.294 21.679,223.181 21.908,223.346 22.044 C 223.511 22.180,224.138 22.363,224.740 22.452 C 225.342 22.541,226.178 22.796,226.598 23.020 C 227.017 23.243,227.669 23.426,228.046 23.426 C 228.423 23.426,228.966 23.609,229.253 23.833 C 229.541 24.056,230.158 24.309,230.626 24.395 C 231.094 24.482,231.832 24.742,232.265 24.974 C 232.699 25.207,233.178 25.397,233.331 25.397 C 233.484 25.397,233.976 25.594,234.426 25.835 C 234.875 26.076,235.403 26.273,235.599 26.273 C 235.796 26.273,236.207 26.470,236.513 26.710 C 236.819 26.951,237.262 27.148,237.498 27.148 C 237.734 27.148,238.162 27.331,238.449 27.554 C 238.736 27.778,239.340 28.081,239.792 28.228 C 240.244 28.375,240.613 28.583,240.613 28.689 C 240.613 28.796,240.996 28.986,241.463 29.112 C 241.931 29.238,242.436 29.488,242.585 29.668 C 242.734 29.847,243.029 29.995,243.240 29.995 C 243.452 29.995,243.752 30.148,243.908 30.336 C 244.063 30.523,244.494 30.823,244.865 31.001 C 246.366 31.723,247.112 32.165,247.385 32.494 C 247.543 32.685,247.770 32.841,247.889 32.841 C 248.208 32.841,250.246 34.198,250.246 34.410 C 250.246 34.510,250.373 34.592,250.527 34.592 C 250.895 34.592,254.187 36.969,254.187 37.234 C 254.187 37.346,254.330 37.438,254.504 37.438 C 254.679 37.438,255.087 37.685,255.412 37.986 C 255.737 38.287,256.067 38.533,256.146 38.533 C 256.224 38.533,256.678 38.903,257.153 39.354 C 257.629 39.806,258.610 40.667,259.332 41.268 C 260.055 41.869,261.097 42.805,261.649 43.348 C 262.201 43.891,263.039 44.681,263.510 45.103 C 264.410 45.910,268.085 49.886,269.474 51.556 C 271.525 54.021,272.053 54.706,272.906 56.005 C 273.027 56.188,273.256 56.495,273.415 56.686 C 274.442 57.919,274.767 58.375,274.767 58.587 C 274.767 58.719,274.964 59.005,275.205 59.223 C 275.446 59.441,275.643 59.713,275.643 59.827 C 275.643 59.942,275.889 60.328,276.190 60.686 C 276.492 61.044,276.738 61.472,276.738 61.637 C 276.738 61.802,276.875 62.017,277.043 62.113 C 277.210 62.209,277.509 62.633,277.707 63.054 C 278.277 64.267,278.760 65.108,279.060 65.407 C 279.212 65.560,279.406 65.905,279.490 66.175 C 279.575 66.446,279.828 66.902,280.052 67.189 C 280.276 67.476,280.460 67.880,280.460 68.086 C 280.460 68.292,280.657 68.688,280.898 68.966 C 281.138 69.243,281.336 69.639,281.336 69.845 C 281.336 70.051,281.526 70.463,281.760 70.760 C 281.993 71.056,282.250 71.560,282.330 71.879 C 282.410 72.198,282.859 73.210,283.329 74.128 C 283.798 75.045,284.182 75.960,284.182 76.161 C 284.182 76.361,284.372 76.880,284.604 77.313 C 284.836 77.747,285.095 78.484,285.179 78.952 C 285.263 79.420,285.459 79.951,285.614 80.131 C 285.769 80.312,285.969 80.853,286.058 81.333 C 286.148 81.814,286.400 82.602,286.619 83.085 C 286.839 83.568,287.020 84.260,287.023 84.623 C 287.026 84.986,287.211 85.626,287.434 86.046 C 287.657 86.466,287.910 87.443,287.997 88.218 C 288.083 88.993,288.289 89.889,288.454 90.209 C 288.620 90.529,288.823 91.569,288.906 92.522 C 288.990 93.474,289.199 94.533,289.372 94.875 C 289.554 95.234,289.769 96.671,289.880 98.269 C 289.986 99.793,290.171 101.730,290.291 102.573 C 290.544 104.358,290.609 116.105,290.367 116.348 C 290.276 116.438,290.183 116.972,290.160 117.534 C 290.033 120.568,289.653 124.087,289.366 124.879 C 289.187 125.374,288.979 126.516,288.904 127.415 C 288.829 128.314,288.635 129.252,288.472 129.500 C 288.310 129.748,288.105 130.589,288.016 131.368 C 287.928 132.148,287.682 133.180,287.471 133.662 C 287.259 134.143,287.020 134.969,286.940 135.496 C 286.860 136.023,286.650 136.660,286.474 136.913 C 286.297 137.165,286.152 137.624,286.152 137.933 C 286.152 138.242,285.956 138.880,285.716 139.350 C 285.476 139.821,285.215 140.554,285.135 140.979 C 285.055 141.405,284.808 142.051,284.587 142.415 C 284.365 142.779,284.183 143.261,284.183 143.488 C 284.182 143.715,283.996 144.207,283.769 144.583 C 283.542 144.958,283.285 145.512,283.199 145.813 C 282.970 146.616,281.942 148.723,281.617 149.058 C 281.462 149.217,281.336 149.524,281.336 149.740 C 281.336 149.956,281.138 150.383,280.898 150.689 C 280.657 150.995,280.460 151.348,280.460 151.473 C 280.460 151.791,279.499 153.564,278.948 154.266 C 278.696 154.586,278.489 155.031,278.489 155.255 C 278.489 155.478,278.292 155.784,278.051 155.935 C 277.811 156.085,277.614 156.368,277.614 156.564 C 277.614 156.760,277.417 157.170,277.176 157.476 C 276.935 157.782,276.738 158.125,276.738 158.238 C 276.738 158.351,276.541 158.622,276.300 158.840 C 276.059 159.058,275.862 159.328,275.862 159.440 C 275.862 159.622,274.787 161.261,274.220 161.943 C 274.100 162.088,273.755 162.568,273.454 163.008 C 273.153 163.449,272.759 163.978,272.578 164.183 C 272.397 164.389,271.910 165.044,271.495 165.639 C 270.682 166.806,270.443 167.094,269.086 168.546 C 268.598 169.067,268.199 169.542,268.199 169.600 C 268.199 169.882,262.819 175.327,260.227 177.668 C 259.160 178.632,258.050 179.641,257.760 179.912 C 257.470 180.183,257.156 180.405,257.062 180.405 C 256.968 180.405,256.659 180.651,256.377 180.952 C 256.094 181.253,255.735 181.500,255.580 181.500 C 255.424 181.500,255.192 181.697,255.063 181.938 C 254.934 182.178,254.681 182.375,254.501 182.375 C 254.321 182.375,254.118 182.519,254.051 182.694 C 253.984 182.869,253.575 183.238,253.141 183.515 C 252.052 184.210,251.806 184.371,250.708 185.117 C 250.180 185.475,249.490 185.907,249.176 186.076 C 248.861 186.244,248.525 186.515,248.429 186.678 C 248.333 186.840,248.119 186.973,247.953 186.973 C 247.788 186.973,247.360 187.219,247.002 187.521 C 246.644 187.822,246.215 188.068,246.049 188.068 C 245.882 188.068,245.577 188.265,245.371 188.506 C 245.165 188.747,244.805 188.944,244.572 188.944 C 244.338 188.944,243.992 189.099,243.803 189.288 C 243.411 189.680,238.881 192.005,238.505 192.007 C 238.369 192.008,238.141 192.150,237.997 192.323 C 237.854 192.496,237.423 192.704,237.040 192.785 C 236.657 192.867,236.196 193.055,236.015 193.204 C 235.835 193.353,235.244 193.630,234.702 193.820 C 232.392 194.629,231.428 195.011,231.158 195.224 C 231.000 195.349,230.489 195.510,230.022 195.581 C 229.556 195.653,229.013 195.857,228.817 196.035 C 228.621 196.213,227.918 196.427,227.257 196.511 C 226.595 196.595,225.887 196.808,225.683 196.986 C 225.480 197.163,224.741 197.383,224.041 197.474 C 223.342 197.565,222.425 197.791,222.003 197.975 C 221.582 198.159,220.695 198.377,220.033 198.459 C 219.371 198.541,218.533 198.740,218.172 198.900 C 217.811 199.061,216.433 199.306,215.112 199.446 C 213.790 199.586,212.582 199.805,212.429 199.933 C 211.457 200.739,188.417 200.621,186.488 199.799 C 186.040 199.609,185.252 199.451,184.736 199.448 C 184.220 199.446,183.158 199.293,182.375 199.109 C 181.593 198.925,180.197 198.639,179.274 198.472 C 178.351 198.305,177.316 198.028,176.975 197.855 C 176.634 197.683,175.813 197.472,175.152 197.388 C 174.490 197.303,173.800 197.106,173.619 196.949 C 173.438 196.793,172.846 196.597,172.304 196.515 C 171.762 196.433,171.104 196.225,170.842 196.053 C 170.579 195.881,169.939 195.676,169.419 195.597 C 168.899 195.518,168.318 195.319,168.129 195.155 C 167.939 194.992,167.348 194.714,166.815 194.539 C 164.892 193.909,163.569 193.395,163.287 193.169 C 163.129 193.042,162.753 192.863,162.452 192.771 C 162.151 192.679,161.561 192.421,161.142 192.197 C 160.722 191.973,160.267 191.790,160.131 191.790 C 159.995 191.790,159.641 191.599,159.344 191.366 C 159.048 191.132,158.541 190.875,158.217 190.794 C 157.894 190.713,157.557 190.523,157.468 190.373 C 157.380 190.223,156.938 189.980,156.486 189.833 C 156.034 189.687,155.665 189.491,155.665 189.398 C 155.665 189.305,155.296 189.065,154.844 188.865 C 153.844 188.421,153.166 188.026,152.656 187.592 C 152.445 187.412,151.951 187.138,151.560 186.983 C 151.169 186.828,150.848 186.611,150.848 186.502 C 150.848 186.392,150.676 186.237,150.465 186.156 C 150.067 186.003,148.745 185.173,148.284 184.786 C 148.138 184.663,147.769 184.449,147.463 184.310 C 147.158 184.171,146.907 183.925,146.907 183.763 C 146.907 183.602,146.773 183.470,146.609 183.470 C 146.445 183.470,145.928 183.173,145.460 182.810 C 144.992 182.447,144.383 181.979,144.107 181.770 C 143.832 181.561,143.438 181.236,143.232 181.048 C 143.026 180.860,142.118 180.108,141.215 179.378 C 140.312 178.648,139.179 177.682,138.697 177.231 C 136.087 174.789,135.523 174.221,135.523 174.038 C 135.523 173.928,135.375 173.837,135.194 173.837 C 135.014 173.837,134.866 173.757,134.866 173.659 C 134.866 173.561,133.979 172.558,132.895 171.429 C 131.812 170.300,130.923 169.320,130.920 169.253 C 130.918 169.185,130.499 168.665,129.990 168.096 C 129.481 167.528,128.774 166.666,128.420 166.180 C 128.066 165.695,127.694 165.298,127.594 165.298 C 127.493 165.298,127.315 165.077,127.197 164.806 C 127.079 164.535,126.644 163.870,126.231 163.328 C 124.993 161.705,122.386 157.809,122.386 157.582 C 122.386 157.510,121.943 156.790,121.401 155.982 C 120.859 155.174,120.416 154.418,120.416 154.302 C 120.416 154.187,120.219 153.842,119.978 153.535 C 119.737 153.229,119.540 152.835,119.540 152.660 C 119.540 152.484,119.343 152.090,119.102 151.784 C 118.862 151.478,118.664 151.084,118.664 150.908 C 118.664 150.733,118.467 150.339,118.227 150.032 C 117.986 149.726,117.789 149.305,117.789 149.097 C 117.789 148.889,117.592 148.468,117.351 148.161 C 117.110 147.855,116.913 147.418,116.913 147.189 C 116.913 146.961,116.667 146.440,116.366 146.032 C 116.065 145.624,115.818 145.099,115.818 144.866 C 115.818 144.632,115.633 144.134,115.407 143.759 C 115.181 143.383,114.932 142.717,114.854 142.277 C 114.776 141.838,114.579 141.368,114.417 141.233 C 114.254 141.098,114.058 140.589,113.980 140.101 C 113.902 139.613,113.702 138.999,113.535 138.737 C 113.369 138.474,113.162 137.817,113.074 137.275 C 112.987 136.734,112.731 135.947,112.506 135.527 C 112.281 135.107,112.094 134.417,112.092 133.993 C 112.089 133.570,111.905 132.825,111.684 132.337 C 111.462 131.849,111.210 130.789,111.124 129.982 C 111.037 129.174,110.828 128.236,110.659 127.896 C 110.489 127.557,110.260 126.400,110.149 125.326 C 110.039 124.251,109.840 122.978,109.707 122.496 C 108.772 119.093,108.808 99.823,109.755 96.990 C 109.936 96.448,110.151 95.155,110.232 94.116 C 110.313 93.077,110.515 91.966,110.680 91.648 C 110.846 91.329,111.047 90.454,111.128 89.705 C 111.210 88.955,111.460 87.928,111.686 87.423 C 111.912 86.918,112.096 86.178,112.096 85.778 C 112.096 85.378,112.281 84.707,112.506 84.286 C 112.732 83.865,112.987 83.009,113.073 82.384 C 113.159 81.759,113.361 81.139,113.521 81.006 C 113.682 80.872,113.883 80.350,113.968 79.846 C 114.054 79.342,114.308 78.586,114.533 78.165 C 114.758 77.745,114.943 77.218,114.943 76.995 C 114.943 76.771,115.140 76.337,115.380 76.031 C 115.621 75.725,115.819 75.266,115.819 75.012 C 115.820 74.757,116.002 74.251,116.224 73.886 C 116.446 73.522,116.749 72.857,116.897 72.409 C 117.045 71.960,117.252 71.593,117.358 71.593 C 117.464 71.593,117.613 71.254,117.691 70.841 C 117.769 70.427,118.019 69.919,118.248 69.712 C 118.477 69.505,118.664 69.104,118.664 68.820 C 118.664 68.536,118.862 68.136,119.102 67.929 C 119.343 67.723,119.540 67.398,119.540 67.207 C 119.540 67.016,119.688 66.669,119.869 66.435 C 120.049 66.201,120.397 65.616,120.640 65.134 C 121.238 63.951,121.597 63.350,121.980 62.891 C 122.157 62.680,122.426 62.261,122.578 61.959 C 123.387 60.354,124.774 58.238,125.017 58.238 C 125.108 58.238,125.242 58.065,125.316 57.854 C 125.468 57.421,126.365 56.114,126.869 55.592 C 127.053 55.401,127.203 55.134,127.203 54.998 C 127.203 54.861,127.400 54.644,127.641 54.516 C 127.882 54.387,128.079 54.142,128.079 53.971 C 128.079 53.801,128.203 53.583,128.354 53.487 C 128.505 53.390,128.922 52.917,129.281 52.436 C 129.640 51.954,130.181 51.291,130.484 50.962 C 130.787 50.633,131.626 49.706,132.348 48.903 C 134.161 46.887,137.802 43.265,139.472 41.817 C 140.236 41.155,141.083 40.402,141.354 40.143 C 141.624 39.885,142.314 39.343,142.887 38.939 C 143.459 38.535,144.095 38.057,144.300 37.876 C 145.319 36.978,146.000 36.447,146.798 35.930 C 147.280 35.618,147.753 35.239,147.849 35.087 C 147.945 34.935,148.152 34.811,148.310 34.811 C 148.467 34.811,148.861 34.565,149.186 34.264 C 149.510 33.963,149.862 33.716,149.967 33.716 C 150.072 33.716,150.818 33.273,151.627 32.731 C 152.435 32.189,153.181 31.746,153.286 31.746 C 153.390 31.746,153.673 31.549,153.914 31.308 C 154.154 31.067,154.552 30.870,154.796 30.870 C 155.041 30.870,155.297 30.724,155.366 30.544 C 155.435 30.365,155.875 30.115,156.344 29.988 C 156.814 29.862,157.198 29.671,157.198 29.563 C 157.198 29.455,157.419 29.298,157.690 29.214 C 157.961 29.130,158.429 28.892,158.730 28.684 C 159.031 28.477,159.565 28.237,159.917 28.152 C 160.269 28.067,160.791 27.813,161.077 27.588 C 161.363 27.363,161.888 27.115,162.243 27.037 C 162.599 26.959,162.890 26.816,162.890 26.719 C 162.890 26.622,163.345 26.429,163.900 26.289 C 164.456 26.149,165.054 25.891,165.230 25.716 C 165.405 25.540,165.763 25.396,166.025 25.396 C 166.288 25.396,166.806 25.210,167.178 24.984 C 167.549 24.757,168.189 24.499,168.601 24.410 C 169.012 24.321,169.714 24.064,170.161 23.838 C 170.608 23.611,171.251 23.426,171.590 23.426 C 171.929 23.426,172.426 23.273,172.693 23.086 C 172.960 22.899,173.779 22.649,174.513 22.531 C 175.247 22.412,176.067 22.172,176.335 21.996 C 176.603 21.820,177.456 21.611,178.231 21.532 C 179.005 21.452,179.838 21.258,180.081 21.101 C 180.324 20.944,181.453 20.709,182.591 20.581 C 183.728 20.452,185.154 20.210,185.761 20.043 C 186.367 19.876,188.489 19.621,190.476 19.476 C 192.463 19.330,194.236 19.129,194.417 19.027 C 194.871 18.772,204.349 18.780,204.971 19.036 " stroke="none" fill="#1c2c64" fill-rule="evenodd"></path><path id="path2" d="M173.479 61.476 C 173.110 61.951,172.995 62.455,172.930 63.888 C 172.835 65.977,172.810 66.006,170.909 66.220 C 169.554 66.374,166.323 67.227,165.588 67.626 C 163.904 68.540,162.934 68.280,162.182 66.713 C 161.304 64.885,159.865 63.953,159.422 64.925 C 158.941 65.980,159.067 66.519,160.297 68.668 C 160.794 69.537,160.589 70.432,159.798 70.841 C 159.451 71.020,159.168 71.250,159.168 71.353 C 159.168 71.456,158.897 71.659,158.566 71.805 C 158.047 72.033,156.512 73.644,155.013 75.534 C 154.110 76.671,154.094 76.681,153.204 76.561 C 152.727 76.498,152.126 76.258,151.867 76.030 C 151.608 75.802,150.967 75.429,150.444 75.203 L 149.492 74.791 149.075 75.327 C 148.316 76.299,148.772 77.193,150.531 78.186 C 152.290 79.179,152.429 79.695,151.499 81.773 C 151.283 82.255,151.036 83.043,150.949 83.525 C 150.862 84.007,150.686 84.598,150.558 84.839 C 150.430 85.079,150.221 86.065,150.094 87.028 L 149.863 88.779 147.942 88.911 C 146.336 89.021,145.922 89.129,145.424 89.568 C 145.096 89.857,144.796 90.109,144.757 90.127 C 144.718 90.146,144.837 90.454,145.022 90.811 C 145.423 91.587,145.866 91.728,147.921 91.732 C 149.779 91.736,149.866 91.815,150.067 93.706 C 150.229 95.224,151.056 98.188,151.738 99.689 C 152.507 101.382,151.994 102.369,150.020 102.995 C 149.730 103.087,149.304 103.590,148.990 104.210 L 148.454 105.268 149.004 105.629 C 149.350 105.855,149.734 105.933,150.037 105.838 C 150.590 105.666,152.765 104.532,153.139 104.222 C 153.518 103.907,154.381 104.570,155.697 106.185 C 156.334 106.968,157.056 107.770,157.301 107.967 C 157.545 108.164,158.041 108.609,158.402 108.955 C 158.763 109.301,159.433 109.869,159.890 110.217 C 160.859 110.955,160.851 111.548,159.852 113.057 C 158.703 114.793,159.259 116.892,160.673 116.161 C 161.050 115.966,161.357 115.718,161.357 115.609 C 161.357 115.501,161.498 115.271,161.670 115.100 C 161.841 114.928,162.129 114.436,162.308 114.006 C 162.921 112.540,163.382 112.440,165.551 113.301 C 166.589 113.713,168.105 114.157,168.918 114.287 C 169.732 114.417,170.574 114.618,170.789 114.733 C 171.953 115.356,173.113 115.005,174.628 113.574 C 177.084 111.254,197.877 90.349,198.371 89.705 C 199.208 88.612,198.653 85.382,196.831 80.730 L 196.422 79.686 196.972 79.033 C 197.274 78.674,197.625 78.380,197.752 78.380 C 198.883 78.380,200.329 76.580,199.964 75.629 C 199.782 75.154,198.819 74.804,198.476 75.089 C 196.656 76.599,194.933 76.897,194.072 75.850 C 193.303 74.916,189.777 71.420,188.779 70.604 C 188.388 70.283,188.068 69.916,188.068 69.788 C 188.068 69.434,189.133 67.258,189.382 67.104 C 189.621 66.956,189.679 65.485,189.468 64.933 C 189.131 64.055,187.683 64.730,186.921 66.119 C 185.595 68.539,185.266 68.673,183.199 67.635 C 182.200 67.133,180.248 66.622,177.796 66.219 C 175.608 65.860,175.596 65.845,175.592 63.589 C 175.587 61.117,174.559 60.089,173.479 61.476 M169.814 76.729 C 169.881 76.906,170.139 77.114,170.386 77.192 C 170.969 77.377,172.742 79.011,172.742 79.363 C 172.742 79.512,172.939 79.885,173.180 80.191 C 173.978 81.205,173.821 85.056,172.926 86.415 C 172.069 87.717,171.206 88.670,170.883 88.670 C 170.748 88.670,170.304 88.916,169.896 89.217 C 168.876 89.970,165.054 90.043,164.144 89.327 C 163.838 89.086,163.480 88.889,163.349 88.889 C 162.983 88.889,161.487 87.352,160.898 86.371 C 160.011 84.894,160.109 80.835,161.064 79.475 C 162.840 76.944,163.867 76.425,167.111 76.416 C 169.177 76.411,169.715 76.473,169.814 76.729 M184.603 78.812 C 184.934 79.056,185.301 79.256,185.420 79.256 C 186.185 79.256,186.943 82.028,186.427 82.944 C 186.248 83.263,186.006 83.791,185.890 84.116 C 185.734 84.551,185.448 84.769,184.803 84.943 C 184.321 85.073,183.867 85.275,183.795 85.392 C 183.601 85.706,182.732 85.651,182.017 85.278 C 181.672 85.098,181.233 84.950,181.041 84.949 C 180.258 84.946,179.310 83.208,179.310 81.775 C 179.310 80.353,180.155 79.332,182.157 78.335 C 182.674 78.077,183.946 78.325,184.603 78.812 M166.186 78.913 C 166.042 79.086,165.614 79.296,165.234 79.379 C 164.308 79.583,163.393 80.484,163.230 81.351 C 163.157 81.740,162.962 82.170,162.797 82.307 C 162.473 82.576,162.538 83.128,163.021 84.215 C 163.190 84.594,163.328 84.994,163.328 85.102 C 163.328 87.003,168.068 87.642,169.896 85.988 L 170.662 85.295 170.662 83.080 C 170.662 80.767,170.083 79.491,169.021 79.467 C 168.840 79.463,168.298 79.269,167.816 79.037 C 166.755 78.524,166.523 78.507,166.186 78.913 M182.242 81.539 C 181.784 82.732,183.191 83.610,183.716 82.459 C 183.853 82.157,183.906 81.757,183.834 81.568 C 183.667 81.132,182.407 81.108,182.242 81.539 M245.883 91.217 C 245.634 91.535,245.430 91.905,245.430 92.042 C 245.430 92.178,245.245 92.633,245.020 93.053 C 244.795 93.473,244.537 94.260,244.447 94.801 C 244.086 96.970,241.840 99.553,239.509 100.478 L 238.221 100.990 236.954 100.516 C 236.145 100.213,235.273 99.649,234.540 98.954 C 232.953 97.448,233.080 97.386,228.637 101.873 C 223.956 106.602,223.837 106.917,224.504 112.753 L 224.666 114.176 223.923 114.669 C 223.515 114.940,223.001 115.161,222.782 115.161 C 221.659 115.161,220.528 116.448,220.727 117.498 C 220.854 118.168,222.605 118.154,223.951 117.472 C 225.643 116.614,225.935 116.694,227.000 118.302 C 228.161 120.056,229.149 121.044,230.899 122.203 C 232.462 123.238,232.449 123.165,231.512 125.579 C 230.551 128.055,231.635 129.504,233.181 127.812 C 233.534 127.425,233.885 126.783,233.960 126.385 C 234.133 125.458,235.208 124.282,235.736 124.440 C 237.157 124.867,239.971 124.999,241.875 124.727 C 244.244 124.389,244.117 124.318,245.192 126.599 C 246.094 128.512,246.772 128.926,247.619 128.079 C 248.175 127.523,248.174 126.867,247.614 125.822 C 247.370 125.367,247.113 124.577,247.043 124.067 L 246.916 123.139 248.586 121.860 C 249.550 121.122,250.871 119.805,251.710 118.747 C 253.321 116.714,253.470 116.655,255.015 117.433 C 256.415 118.139,257.249 118.285,257.909 117.940 C 259.090 117.325,258.131 115.668,256.296 115.150 C 254.571 114.664,254.351 114.230,254.637 111.873 C 254.863 110.018,254.804 107.704,254.482 105.818 C 254.351 105.049,255.166 104.352,256.843 103.802 C 257.934 103.444,258.393 102.881,258.308 102.008 C 258.201 100.918,257.387 100.736,255.824 101.452 C 253.528 102.503,253.338 102.475,252.099 100.892 C 250.766 99.187,250.099 98.519,248.242 97.025 C 246.622 95.721,246.571 95.423,247.629 93.457 C 248.662 91.536,247.154 89.602,245.883 91.217 M184.172 91.496 C 184.618 91.600,185.136 91.837,185.323 92.024 C 185.509 92.211,185.841 92.420,186.059 92.489 C 188.049 93.121,189.722 99.604,187.898 99.615 C 187.745 99.616,187.526 99.863,187.411 100.164 C 187.297 100.465,187.064 100.712,186.895 100.712 C 186.725 100.712,186.535 100.909,186.472 101.149 C 186.409 101.390,186.207 101.587,186.023 101.587 C 185.839 101.587,185.628 101.779,185.554 102.014 C 185.479 102.249,185.237 102.498,185.015 102.569 C 184.794 102.639,184.561 102.890,184.500 103.127 C 184.438 103.364,184.237 103.558,184.053 103.558 C 183.869 103.558,183.661 103.740,183.590 103.962 C 183.269 104.975,181.087 105.096,179.185 104.207 C 174.247 101.899,173.579 95.584,177.921 92.272 C 179.094 91.377,182.070 91.008,184.172 91.496 M181.171 93.683 C 180.115 94.009,178.949 94.815,178.556 95.491 C 178.322 95.894,178.002 96.354,177.845 96.513 C 177.392 96.971,177.490 98.969,177.997 99.617 C 178.232 99.918,178.427 100.263,178.430 100.383 C 178.450 101.297,181.087 102.207,182.850 101.909 C 185.486 101.464,186.910 97.242,185.077 95.309 C 183.905 94.073,182.203 93.364,181.171 93.683 M167.075 95.630 C 167.362 95.845,167.863 96.137,168.188 96.277 C 168.607 96.458,168.848 96.787,169.015 97.408 C 169.145 97.890,169.347 98.344,169.464 98.416 C 169.791 98.618,169.717 99.530,169.349 99.836 C 169.168 99.986,169.020 100.280,169.020 100.490 C 169.020 101.026,168.187 102.025,167.739 102.025 C 167.534 102.025,167.172 102.160,166.934 102.324 C 166.085 102.912,165.544 102.953,164.939 102.478 C 164.623 102.229,164.188 102.025,163.974 102.025 C 163.759 102.025,163.280 101.642,162.908 101.173 C 161.089 98.876,162.882 95.429,165.980 95.268 C 166.295 95.252,166.788 95.414,167.075 95.630 M165.225 98.449 C 164.981 98.694,165.063 99.550,165.353 99.784 C 165.804 100.147,166.612 99.709,166.612 99.100 C 166.612 98.454,165.665 98.010,165.225 98.449 M244.689 101.533 C 246.150 102.242,247.057 103.028,247.283 103.781 C 247.372 104.080,247.602 104.570,247.792 104.871 C 249.117 106.964,246.570 111.192,243.802 111.495 C 241.194 111.781,239.795 111.242,238.226 109.349 C 237.228 108.144,237.429 104.571,238.575 103.168 C 240.240 101.128,242.572 100.504,244.689 101.533 M241.429 104.235 C 240.784 104.610,240.099 106.290,240.378 106.811 C 240.507 107.053,240.613 107.457,240.613 107.708 C 240.613 108.160,240.867 108.319,242.255 108.737 C 243.617 109.148,245.211 107.870,245.211 106.369 C 245.211 104.714,242.872 103.395,241.429 104.235 M236.950 110.947 C 239.317 112.743,239.288 116.493,236.903 117.059 C 236.595 117.132,236.087 117.339,235.773 117.519 C 235.153 117.875,232.593 117.086,232.253 116.435 C 231.314 114.637,231.267 114.281,231.768 112.749 C 232.501 110.510,235.157 109.586,236.950 110.947 M234.173 113.598 C 233.860 114.105,234.467 114.973,235.085 114.902 C 236.047 114.792,235.971 113.547,234.996 113.452 C 234.616 113.415,234.246 113.481,234.173 113.598 M199.793 130.710 C 188.644 141.844,188.304 142.149,186.316 142.790 C 184.579 143.351,181.595 142.988,180.504 142.082 C 180.024 141.684,179.656 141.894,177.924 143.555 C 175.922 145.476,174.496 146.251,172.962 146.251 C 171.631 146.251,171.501 146.461,171.975 147.856 C 172.399 149.105,172.180 149.645,171.060 150.113 C 169.143 150.914,168.391 152.082,169.028 153.271 C 169.261 153.707,170.208 153.856,170.432 153.493 C 170.639 153.160,172.583 152.121,173.338 151.941 C 173.984 151.787,174.106 151.850,174.788 152.679 C 175.830 153.946,179.524 157.635,179.750 157.635 C 179.853 157.635,180.143 157.925,180.395 158.278 L 180.852 158.921 180.081 160.349 C 178.467 163.339,179.568 165.442,181.483 163.024 C 181.853 162.556,182.157 162.081,182.157 161.970 C 182.157 160.614,183.803 160.009,185.310 160.810 C 185.876 161.111,186.556 161.362,186.821 161.367 C 187.085 161.372,187.696 161.530,188.177 161.717 C 188.659 161.904,189.790 162.148,190.691 162.259 C 192.791 162.517,192.938 162.679,193.097 164.910 C 193.378 168.862,195.731 168.663,195.731 164.686 C 195.731 163.149,196.017 162.470,196.677 162.441 C 198.339 162.368,202.697 161.386,203.259 160.957 C 203.393 160.854,203.915 160.610,204.418 160.415 L 205.333 160.060 206.005 160.826 C 206.375 161.247,206.678 161.695,206.678 161.822 C 206.678 162.264,208.041 163.947,208.496 164.065 C 209.543 164.339,209.998 162.034,209.122 160.894 C 207.817 159.198,207.906 158.461,209.559 157.275 C 210.861 156.339,212.510 154.699,213.656 153.197 C 214.685 151.848,215.472 151.577,216.426 152.245 C 217.315 152.867,218.925 153.695,219.246 153.695 C 220.177 153.695,220.321 151.700,219.431 151.130 C 219.100 150.918,218.699 150.620,218.540 150.468 C 218.381 150.317,218.008 150.131,217.711 150.057 C 216.495 149.752,216.419 148.378,217.500 146.260 C 217.879 145.517,218.512 142.965,218.739 141.261 C 218.985 139.420,218.931 139.464,220.984 139.464 C 222.620 139.464,222.847 139.410,223.460 138.880 L 224.135 138.296 223.704 137.566 L 223.274 136.836 221.380 136.833 C 219.027 136.829,219.005 136.814,218.818 135.082 C 218.733 134.301,218.540 133.356,218.388 132.983 C 218.236 132.609,218.039 131.875,217.951 131.351 C 217.862 130.827,217.606 130.045,217.381 129.613 C 216.286 127.512,216.701 126.345,218.855 125.478 C 219.575 125.188,220.033 124.460,220.033 123.607 C 220.033 122.429,218.967 122.414,216.968 123.565 C 216.426 123.877,215.859 124.193,215.708 124.268 C 215.239 124.501,214.426 124.171,214.187 123.651 C 213.888 122.997,211.084 119.978,210.777 119.978 C 210.646 119.978,205.703 124.807,199.793 130.710 M207.728 125.323 C 208.443 125.696,209.289 126.597,209.927 127.667 C 210.614 128.818,210.639 133.486,209.962 134.100 C 209.721 134.318,209.524 134.624,209.524 134.782 C 209.524 135.939,205.911 137.931,203.812 137.931 C 199.830 137.931,195.919 133.331,199.054 132.336 C 199.273 132.266,199.453 132.068,199.453 131.895 C 199.453 131.238,199.845 131.621,200.098 132.526 C 201.231 136.573,208.210 135.238,208.210 130.974 C 208.210 129.853,206.643 127.628,205.638 127.323 C 204.617 127.013,205.455 125.091,206.634 125.037 C 206.911 125.024,207.403 125.153,207.728 125.323 M191.455 140.258 C 192.907 140.815,193.963 144.148,193.570 146.928 C 192.676 153.239,183.915 154.309,180.844 148.482 C 179.824 146.546,179.901 142.967,180.963 142.967 C 182.341 142.967,182.976 143.808,183.062 145.744 C 183.154 147.808,183.636 148.544,185.413 149.329 C 188.560 150.722,192.423 147.159,190.884 144.283 C 190.660 143.864,190.476 143.401,190.476 143.256 C 190.476 143.110,190.274 142.850,190.027 142.677 C 189.446 142.270,189.655 141.280,190.395 140.944 C 190.680 140.813,190.914 140.575,190.914 140.414 C 190.914 140.080,190.959 140.067,191.455 140.258 M205.528 143.997 C 205.679 144.199,205.802 144.478,205.802 144.617 C 205.802 144.756,205.999 145.048,206.240 145.265 C 207.916 146.783,205.393 150.341,202.774 150.152 C 200.474 149.986,198.171 146.748,199.543 145.610 C 199.734 145.451,199.891 145.132,199.891 144.900 C 199.891 144.229,200.868 143.407,201.687 143.389 C 202.084 143.381,202.602 143.298,202.838 143.206 C 203.388 142.991,205.168 143.514,205.528 143.997 M202.412 145.950 C 201.816 146.546,202.067 147.250,202.846 147.162 C 203.699 147.067,203.822 146.924,203.680 146.196 C 203.544 145.505,202.969 145.393,202.412 145.950 " stroke="none" fill="#ad141d" fill-rule="evenodd"></path><path id="path3" d="M194.417 19.027 C 194.236 19.129,192.463 19.330,190.476 19.476 C 188.489 19.621,186.367 19.876,185.761 20.043 C 185.154 20.210,183.728 20.452,182.591 20.581 C 181.453 20.709,180.324 20.944,180.081 21.101 C 179.838 21.258,179.005 21.452,178.231 21.532 C 177.456 21.611,176.603 21.820,176.335 21.996 C 176.067 22.172,175.247 22.412,174.513 22.531 C 173.779 22.649,172.960 22.899,172.693 23.086 C 172.426 23.273,171.929 23.426,171.590 23.426 C 171.251 23.426,170.608 23.611,170.161 23.838 C 169.714 24.064,169.012 24.321,168.601 24.410 C 168.189 24.499,167.549 24.757,167.178 24.984 C 166.806 25.210,166.288 25.396,166.025 25.396 C 165.763 25.396,165.405 25.540,165.230 25.716 C 165.054 25.891,164.456 26.149,163.900 26.289 C 163.345 26.429,162.890 26.622,162.890 26.719 C 162.890 26.816,162.599 26.959,162.243 27.037 C 161.888 27.115,161.363 27.363,161.077 27.588 C 160.791 27.813,160.269 28.067,159.917 28.152 C 159.565 28.237,159.031 28.477,158.730 28.684 C 158.429 28.892,157.961 29.130,157.690 29.214 C 157.419 29.298,157.198 29.455,157.198 29.563 C 157.198 29.671,156.814 29.862,156.344 29.988 C 155.875 30.115,155.435 30.365,155.366 30.544 C 155.297 30.724,155.041 30.870,154.796 30.870 C 154.552 30.870,154.154 31.067,153.914 31.308 C 153.673 31.549,153.390 31.746,153.286 31.746 C 153.181 31.746,152.435 32.189,151.627 32.731 C 150.818 33.273,150.072 33.716,149.967 33.716 C 149.862 33.716,149.510 33.963,149.186 34.264 C 148.861 34.565,148.467 34.811,148.310 34.811 C 148.152 34.811,147.945 34.935,147.849 35.087 C 147.753 35.239,147.280 35.618,146.798 35.930 C 146.000 36.447,145.319 36.978,144.300 37.876 C 144.095 38.057,143.459 38.535,142.887 38.939 C 142.314 39.343,141.624 39.885,141.354 40.143 C 141.083 40.402,140.236 41.155,139.472 41.817 C 137.802 43.265,134.161 46.887,132.348 48.903 C 131.626 49.706,130.787 50.633,130.484 50.962 C 130.181 51.291,129.640 51.954,129.281 52.436 C 128.922 52.917,128.505 53.390,128.354 53.487 C 128.203 53.583,128.079 53.801,128.079 53.971 C 128.079 54.142,127.882 54.387,127.641 54.516 C 127.400 54.644,127.203 54.861,127.203 54.998 C 127.203 55.134,127.053 55.401,126.869 55.592 C 126.365 56.114,125.468 57.421,125.316 57.854 C 125.242 58.065,125.108 58.238,125.017 58.238 C 124.774 58.238,123.387 60.354,122.578 61.959 C 122.426 62.261,122.157 62.680,121.980 62.891 C 121.597 63.350,121.238 63.951,120.640 65.134 C 120.397 65.616,120.049 66.201,119.869 66.435 C 119.688 66.669,119.540 67.016,119.540 67.207 C 119.540 67.398,119.343 67.723,119.102 67.929 C 118.862 68.136,118.664 68.536,118.664 68.820 C 118.664 69.104,118.477 69.505,118.248 69.712 C 118.019 69.919,117.769 70.427,117.691 70.841 C 117.613 71.254,117.464 71.593,117.358 71.593 C 117.252 71.593,117.045 71.960,116.897 72.409 C 116.749 72.857,116.446 73.522,116.224 73.886 C 116.002 74.251,115.820 74.757,115.819 75.012 C 115.819 75.266,115.621 75.725,115.380 76.031 C 115.140 76.337,114.943 76.771,114.943 76.995 C 114.943 77.218,114.758 77.745,114.533 78.165 C 114.308 78.586,114.054 79.342,113.968 79.846 C 113.883 80.350,113.682 80.872,113.521 81.006 C 113.361 81.139,113.159 81.759,113.073 82.384 C 112.987 83.009,112.732 83.865,112.506 84.286 C 112.281 84.707,112.096 85.378,112.096 85.778 C 112.096 86.178,111.912 86.918,111.686 87.423 C 111.460 87.928,111.210 88.955,111.128 89.705 C 111.047 90.454,110.846 91.329,110.680 91.648 C 110.515 91.966,110.313 93.077,110.232 94.116 C 110.151 95.155,109.936 96.448,109.755 96.990 C 108.808 99.823,108.772 119.093,109.707 122.496 C 109.840 122.978,110.039 124.251,110.149 125.326 C 110.260 126.400,110.489 127.557,110.659 127.896 C 110.828 128.236,111.037 129.174,111.124 129.982 C 111.210 130.789,111.462 131.849,111.684 132.337 C 111.905 132.825,112.089 133.570,112.092 133.993 C 112.094 134.417,112.281 135.107,112.506 135.527 C 112.731 135.947,112.987 136.734,113.074 137.275 C 113.162 137.817,113.369 138.474,113.535 138.737 C 113.702 138.999,113.902 139.613,113.980 140.101 C 114.058 140.589,114.254 141.098,114.417 141.233 C 114.579 141.368,114.776 141.838,114.854 142.277 C 114.932 142.717,115.181 143.383,115.407 143.759 C 115.633 144.134,115.818 144.632,115.818 144.866 C 115.818 145.099,116.065 145.624,116.366 146.032 C 116.667 146.440,116.913 146.961,116.913 147.189 C 116.913 147.418,117.110 147.855,117.351 148.161 C 117.592 148.468,117.789 148.889,117.789 149.097 C 117.789 149.305,117.986 149.726,118.227 150.032 C 118.467 150.339,118.664 150.733,118.664 150.908 C 118.664 151.084,118.862 151.478,119.102 151.784 C 119.343 152.090,119.540 152.484,119.540 152.660 C 119.540 152.835,119.737 153.229,119.978 153.535 C 120.219 153.842,120.416 154.187,120.416 154.302 C 120.416 154.418,120.859 155.174,121.401 155.982 C 121.943 156.790,122.386 157.510,122.386 157.582 C 122.386 157.809,124.993 161.705,126.231 163.328 C 126.644 163.870,127.079 164.535,127.197 164.806 C 127.315 165.077,127.493 165.298,127.594 165.298 C 127.694 165.298,128.066 165.695,128.420 166.180 C 128.774 166.666,129.481 167.528,129.990 168.096 C 130.499 168.665,130.918 169.185,130.920 169.253 C 130.923 169.320,131.812 170.300,132.895 171.429 C 133.979 172.558,134.866 173.561,134.866 173.659 C 134.866 173.757,135.014 173.837,135.194 173.837 C 135.375 173.837,135.523 173.928,135.523 174.038 C 135.523 174.221,136.087 174.789,138.697 177.231 C 139.179 177.682,140.312 178.648,141.215 179.378 C 142.118 180.108,143.026 180.860,143.232 181.048 C 143.438 181.236,143.832 181.561,144.107 181.770 C 144.383 181.979,144.992 182.447,145.460 182.810 C 145.928 183.173,146.445 183.470,146.609 183.470 C 146.773 183.470,146.907 183.602,146.907 183.763 C 146.907 183.925,147.158 184.171,147.463 184.310 C 147.769 184.449,148.138 184.663,148.284 184.786 C 148.745 185.173,150.067 186.003,150.465 186.156 C 150.676 186.237,150.848 186.392,150.848 186.502 C 150.848 186.611,151.169 186.828,151.560 186.983 C 151.951 187.138,152.445 187.412,152.656 187.592 C 153.166 188.026,153.844 188.421,154.844 188.865 C 155.296 189.065,155.665 189.305,155.665 189.398 C 155.665 189.491,156.034 189.687,156.486 189.833 C 156.938 189.980,157.380 190.223,157.468 190.373 C 157.557 190.523,157.894 190.713,158.217 190.794 C 158.541 190.875,159.048 191.132,159.344 191.366 C 159.641 191.599,159.995 191.790,160.131 191.790 C 160.267 191.790,160.722 191.973,161.142 192.197 C 161.561 192.421,162.151 192.679,162.452 192.771 C 162.753 192.863,163.129 193.042,163.287 193.169 C 163.569 193.395,164.892 193.909,166.815 194.539 C 167.348 194.714,167.939 194.992,168.129 195.155 C 168.318 195.319,168.899 195.518,169.419 195.597 C 169.939 195.676,170.579 195.881,170.842 196.053 C 171.104 196.225,171.762 196.433,172.304 196.515 C 172.846 196.597,173.438 196.793,173.619 196.949 C 173.800 197.106,174.490 197.303,175.152 197.388 C 175.813 197.472,176.634 197.683,176.975 197.855 C 177.316 198.028,178.351 198.305,179.274 198.472 C 180.197 198.639,181.593 198.925,182.375 199.109 C 183.158 199.293,184.220 199.446,184.736 199.448 C 185.252 199.451,186.040 199.609,186.488 199.799 C 188.417 200.621,211.457 200.739,212.429 199.933 C 212.582 199.805,213.790 199.586,215.112 199.446 C 216.433 199.306,217.811 199.061,218.172 198.900 C 218.533 198.740,219.371 198.541,220.033 198.459 C 220.695 198.377,221.582 198.159,222.003 197.975 C 222.425 197.791,223.342 197.565,224.041 197.474 C 224.741 197.383,225.480 197.163,225.683 196.986 C 225.887 196.808,226.595 196.595,227.257 196.511 C 227.918 196.427,228.621 196.213,228.817 196.035 C 229.013 195.857,229.556 195.653,230.022 195.581 C 230.489 195.510,231.000 195.349,231.158 195.224 C 231.428 195.011,232.392 194.629,234.702 193.820 C 235.244 193.630,235.835 193.353,236.015 193.204 C 236.196 193.055,236.657 192.867,237.040 192.785 C 237.423 192.704,237.854 192.496,237.997 192.323 C 238.141 192.150,238.369 192.008,238.505 192.007 C 238.881 192.005,243.411 189.680,243.803 189.288 C 243.992 189.099,244.338 188.944,244.572 188.944 C 244.805 188.944,245.165 188.747,245.371 188.506 C 245.577 188.265,245.882 188.068,246.049 188.068 C 246.215 188.068,246.644 187.822,247.002 187.521 C 247.360 187.219,247.788 186.973,247.953 186.973 C 248.119 186.973,248.333 186.840,248.429 186.678 C 248.525 186.515,248.861 186.244,249.176 186.076 C 249.490 185.907,250.180 185.475,250.708 185.117 C 251.806 184.371,252.052 184.210,253.141 183.515 C 253.575 183.238,253.984 182.869,254.051 182.694 C 254.118 182.519,254.321 182.375,254.501 182.375 C 254.681 182.375,254.934 182.178,255.063 181.938 C 255.192 181.697,255.424 181.500,255.580 181.500 C 255.735 181.500,256.094 181.253,256.377 180.952 C 256.659 180.651,256.968 180.405,257.062 180.405 C 257.156 180.405,257.470 180.183,257.760 179.912 C 258.050 179.641,259.160 178.632,260.227 177.668 C 262.819 175.327,268.199 169.882,268.199 169.600 C 268.199 169.542,268.598 169.067,269.086 168.546 C 270.443 167.094,270.682 166.806,271.495 165.639 C 271.910 165.044,272.397 164.389,272.578 164.183 C 272.759 163.978,273.153 163.449,273.454 163.008 C 273.755 162.568,274.100 162.088,274.220 161.943 C 274.787 161.261,275.862 159.622,275.862 159.440 C 275.862 159.328,276.059 159.058,276.300 158.840 C 276.541 158.622,276.738 158.351,276.738 158.238 C 276.738 158.125,276.935 157.782,277.176 157.476 C 277.417 157.170,277.614 156.760,277.614 156.564 C 277.614 156.368,277.811 156.085,278.051 155.935 C 278.292 155.784,278.489 155.478,278.489 155.255 C 278.489 155.031,278.696 154.586,278.948 154.266 C 279.499 153.564,280.460 151.791,280.460 151.473 C 280.460 151.348,280.657 150.995,280.898 150.689 C 281.138 150.383,281.336 149.956,281.336 149.740 C 281.336 149.524,281.462 149.217,281.617 149.058 C 281.942 148.723,282.970 146.616,283.199 145.813 C 283.285 145.512,283.542 144.958,283.769 144.583 C 283.996 144.207,284.182 143.715,284.183 143.488 C 284.183 143.261,284.365 142.779,284.587 142.415 C 284.808 142.051,285.055 141.405,285.135 140.979 C 285.215 140.554,285.476 139.821,285.716 139.350 C 285.956 138.880,286.152 138.242,286.152 137.933 C 286.152 137.624,286.297 137.165,286.474 136.913 C 286.650 136.660,286.860 136.023,286.940 135.496 C 287.020 134.969,287.259 134.143,287.471 133.662 C 287.682 133.180,287.928 132.148,288.016 131.368 C 288.105 130.589,288.310 129.748,288.472 129.500 C 288.635 129.252,288.829 128.314,288.904 127.415 C 288.979 126.516,289.187 125.374,289.366 124.879 C 289.653 124.087,290.033 120.568,290.160 117.534 C 290.183 116.972,290.276 116.438,290.367 116.348 C 290.609 116.105,290.544 104.358,290.291 102.573 C 290.171 101.730,289.986 99.793,289.880 98.269 C 289.769 96.671,289.554 95.234,289.372 94.875 C 289.199 94.533,288.990 93.474,288.906 92.522 C 288.823 91.569,288.620 90.529,288.454 90.209 C 288.289 89.889,288.083 88.993,287.997 88.218 C 287.910 87.443,287.657 86.466,287.434 86.046 C 287.211 85.626,287.026 84.986,287.023 84.623 C 287.020 84.260,286.839 83.568,286.619 83.085 C 286.400 82.602,286.148 81.814,286.058 81.333 C 285.969 80.853,285.769 80.312,285.614 80.131 C 285.459 79.951,285.263 79.420,285.179 78.952 C 285.095 78.484,284.836 77.747,284.604 77.313 C 284.372 76.880,284.182 76.361,284.182 76.161 C 284.182 75.960,283.798 75.045,283.329 74.128 C 282.859 73.210,282.410 72.198,282.330 71.879 C 282.250 71.560,281.993 71.056,281.760 70.760 C 281.526 70.463,281.336 70.051,281.336 69.845 C 281.336 69.639,281.138 69.243,280.898 68.966 C 280.657 68.688,280.460 68.292,280.460 68.086 C 280.460 67.880,280.276 67.476,280.052 67.189 C 279.828 66.902,279.575 66.446,279.490 66.175 C 279.406 65.905,279.212 65.560,279.060 65.407 C 278.760 65.108,278.277 64.267,277.707 63.054 C 277.509 62.633,277.210 62.209,277.043 62.113 C 276.875 62.017,276.738 61.802,276.738 61.637 C 276.738 61.472,276.492 61.044,276.190 60.686 C 275.889 60.328,275.643 59.942,275.643 59.827 C 275.643 59.713,275.446 59.441,275.205 59.223 C 274.964 59.005,274.767 58.719,274.767 58.587 C 274.767 58.375,274.442 57.919,273.415 56.686 C 273.256 56.495,273.027 56.188,272.906 56.005 C 272.053 54.706,271.525 54.021,269.474 51.556 C 268.085 49.886,264.410 45.910,263.510 45.103 C 263.039 44.681,262.201 43.891,261.649 43.348 C 261.097 42.805,260.055 41.869,259.332 41.268 C 258.610 40.667,257.629 39.806,257.153 39.354 C 256.678 38.903,256.224 38.533,256.146 38.533 C 256.067 38.533,255.737 38.287,255.412 37.986 C 255.087 37.685,254.679 37.438,254.504 37.438 C 254.330 37.438,254.187 37.346,254.187 37.234 C 254.187 36.969,250.895 34.592,250.527 34.592 C 250.373 34.592,250.246 34.510,250.246 34.410 C 250.246 34.198,248.208 32.841,247.889 32.841 C 247.770 32.841,247.543 32.685,247.385 32.494 C 247.112 32.165,246.366 31.723,244.865 31.001 C 244.494 30.823,244.063 30.523,243.908 30.336 C 243.752 30.148,243.452 29.995,243.240 29.995 C 243.029 29.995,242.734 29.847,242.585 29.668 C 242.436 29.488,241.931 29.238,241.463 29.112 C 240.996 28.986,240.613 28.796,240.613 28.689 C 240.613 28.583,240.244 28.375,239.792 28.228 C 239.340 28.081,238.736 27.778,238.449 27.554 C 238.162 27.331,237.734 27.148,237.498 27.148 C 237.262 27.148,236.819 26.951,236.513 26.710 C 236.207 26.470,235.796 26.273,235.599 26.273 C 235.403 26.273,234.875 26.076,234.426 25.835 C 233.976 25.594,233.484 25.397,233.331 25.397 C 233.178 25.397,232.699 25.207,232.265 24.974 C 231.832 24.742,231.094 24.482,230.626 24.395 C 230.158 24.309,229.541 24.056,229.253 23.833 C 228.966 23.609,228.423 23.426,228.046 23.426 C 227.669 23.426,227.017 23.243,226.598 23.020 C 226.178 22.796,225.342 22.541,224.740 22.452 C 224.138 22.363,223.511 22.180,223.346 22.044 C 223.181 21.908,222.294 21.679,221.375 21.535 C 220.456 21.390,219.310 21.121,218.829 20.936 C 218.347 20.751,217.501 20.595,216.948 20.590 C 216.395 20.585,215.459 20.433,214.868 20.253 C 214.277 20.073,211.921 19.772,209.633 19.585 C 207.345 19.397,205.247 19.150,204.971 19.036 C 204.349 18.780,194.871 18.772,194.417 19.027 M204.855 19.488 C 205.436 19.609,207.340 19.802,209.086 19.916 C 210.832 20.030,212.753 20.223,213.355 20.346 C 213.957 20.469,215.250 20.670,216.227 20.793 C 217.205 20.916,218.359 21.164,218.793 21.346 C 219.226 21.527,219.855 21.673,220.190 21.672 C 220.525 21.670,221.489 21.874,222.332 22.125 C 223.175 22.376,224.702 22.827,225.725 23.128 C 226.749 23.428,228.081 23.864,228.685 24.097 C 229.290 24.330,229.934 24.521,230.117 24.521 C 230.300 24.521,230.836 24.718,231.308 24.959 C 231.781 25.200,232.273 25.397,232.403 25.397 C 232.533 25.397,233.023 25.593,233.494 25.833 C 233.964 26.073,234.671 26.329,235.065 26.403 C 235.459 26.477,235.895 26.675,236.034 26.843 C 236.174 27.011,236.409 27.148,236.557 27.148 C 236.821 27.148,242.382 29.941,244.354 31.064 C 244.907 31.379,245.690 31.822,246.095 32.048 C 246.500 32.274,246.966 32.595,247.131 32.760 C 247.296 32.925,247.552 33.060,247.700 33.060 C 247.847 33.060,248.160 33.207,248.396 33.388 C 248.631 33.569,249.217 33.975,249.699 34.292 C 253.225 36.609,257.533 40.013,260.754 43.027 C 261.658 43.872,262.583 44.710,262.809 44.888 C 263.035 45.065,263.479 45.491,263.794 45.833 C 264.110 46.175,265.070 47.209,265.927 48.131 C 266.785 49.054,267.900 50.290,268.405 50.879 C 268.911 51.468,269.440 52.073,269.583 52.223 C 269.725 52.374,270.038 52.770,270.279 53.104 C 270.520 53.438,271.244 54.355,271.887 55.142 C 272.872 56.346,274.447 58.561,275.315 59.962 C 275.435 60.157,275.731 60.610,275.972 60.969 C 276.561 61.848,276.856 62.336,278.359 64.915 C 279.309 66.545,282.211 72.406,282.211 72.695 C 282.211 72.852,282.351 73.137,282.523 73.327 C 282.694 73.517,283.000 74.116,283.202 74.658 C 284.175 77.262,284.327 77.643,284.549 78.051 C 284.680 78.292,284.857 78.834,284.944 79.256 C 285.030 79.677,285.223 80.219,285.373 80.460 C 285.522 80.701,285.711 81.193,285.791 81.554 C 285.937 82.215,286.504 84.149,287.267 86.590 C 287.493 87.313,287.739 88.347,287.813 88.889 C 287.888 89.431,288.136 90.500,288.364 91.266 C 288.593 92.031,288.779 93.072,288.779 93.579 C 288.779 94.087,288.929 95.005,289.111 95.619 C 290.347 99.782,290.350 118.961,289.115 124.028 C 288.939 124.751,288.792 125.752,288.787 126.253 C 288.783 126.754,288.584 127.789,288.344 128.552 C 288.105 129.315,287.909 130.137,287.909 130.378 C 287.909 130.832,287.106 133.785,286.361 136.070 C 286.126 136.793,285.930 137.531,285.926 137.712 C 285.922 137.893,285.728 138.435,285.495 138.916 C 285.263 139.398,285.069 139.908,285.065 140.049 C 285.055 140.385,283.819 143.564,283.407 144.314 C 283.231 144.634,283.087 145.009,283.087 145.149 C 283.087 145.411,282.123 147.642,281.760 148.221 C 281.646 148.402,281.455 148.796,281.335 149.097 C 281.215 149.398,281.021 149.792,280.904 149.973 C 280.786 150.153,280.330 151.040,279.890 151.943 C 279.450 152.846,278.905 153.820,278.680 154.107 C 278.455 154.394,278.270 154.816,278.270 155.045 C 278.270 155.273,278.129 155.514,277.957 155.580 C 277.785 155.646,277.535 155.963,277.401 156.285 C 277.096 157.019,276.474 158.036,275.154 159.958 C 274.584 160.788,273.751 162.009,273.303 162.671 C 270.811 166.357,265.388 172.481,261.283 176.245 C 257.888 179.358,258.029 179.238,255.963 180.781 C 255.675 180.996,255.220 181.393,254.952 181.664 C 254.685 181.935,254.358 182.157,254.228 182.157 C 254.097 182.157,253.911 182.280,253.815 182.430 C 253.647 182.692,252.880 183.247,250.246 185.009 C 248.540 186.151,246.036 187.743,245.649 187.932 C 245.468 188.020,244.828 188.374,244.226 188.719 C 243.623 189.063,241.922 189.956,240.445 190.703 C 238.968 191.451,237.706 192.149,237.641 192.254 C 237.575 192.360,237.355 192.448,237.152 192.449 C 236.948 192.450,236.289 192.693,235.687 192.989 C 235.085 193.285,234.464 193.531,234.307 193.534 C 234.150 193.538,233.658 193.728,233.213 193.955 C 232.767 194.183,232.058 194.490,231.637 194.637 C 231.215 194.784,229.934 195.237,228.790 195.644 C 227.646 196.051,226.511 196.384,226.267 196.386 C 226.022 196.387,225.618 196.531,225.367 196.707 C 225.116 196.882,224.242 197.133,223.425 197.263 C 222.608 197.394,221.752 197.601,221.522 197.725 C 221.292 197.848,220.493 198.046,219.747 198.165 C 219.001 198.284,217.997 198.512,217.515 198.672 C 217.033 198.832,215.851 199.032,214.888 199.118 C 213.924 199.203,212.545 199.411,211.823 199.579 C 208.259 200.408,193.642 200.529,188.834 199.769 C 187.630 199.578,185.955 199.330,185.112 199.218 C 183.175 198.959,179.629 198.224,177.778 197.698 C 176.995 197.475,175.964 197.228,175.486 197.150 C 175.009 197.071,174.349 196.867,174.020 196.697 C 173.690 196.527,173.245 196.388,173.031 196.388 C 172.817 196.388,172.147 196.197,171.542 195.964 C 170.938 195.731,170.000 195.397,169.458 195.222 C 168.916 195.048,167.931 194.685,167.269 194.417 C 166.606 194.149,165.621 193.778,165.079 193.593 C 164.537 193.407,163.939 193.123,163.748 192.961 C 163.558 192.798,163.276 192.666,163.121 192.666 C 162.967 192.666,162.482 192.482,162.044 192.257 C 161.606 192.032,160.509 191.484,159.606 191.039 C 157.879 190.188,155.038 188.653,153.621 187.804 C 153.159 187.528,152.519 187.151,152.198 186.968 C 151.700 186.683,149.537 185.252,147.902 184.127 C 138.396 177.582,128.183 166.755,122.562 157.263 C 120.642 154.020,118.179 149.278,116.729 146.032 C 115.661 143.640,113.885 138.886,113.376 137.055 C 113.259 136.634,113.063 135.993,112.941 135.632 C 112.494 134.315,111.600 130.782,111.388 129.502 C 111.269 128.779,111.036 127.696,110.871 127.094 C 110.706 126.492,110.415 124.817,110.226 123.372 C 110.036 121.927,109.774 119.956,109.643 118.993 C 109.342 116.780,109.341 103.206,109.641 100.712 C 109.988 97.838,110.568 94.057,111.018 91.735 C 111.551 88.988,113.208 82.868,114.041 80.569 C 115.322 77.034,116.449 74.192,116.688 73.892 C 116.784 73.771,116.929 73.359,117.011 72.976 C 117.093 72.593,117.292 72.170,117.453 72.037 C 117.614 71.903,117.812 71.527,117.894 71.201 C 117.975 70.874,118.169 70.460,118.325 70.279 C 118.481 70.099,118.725 69.589,118.867 69.147 C 119.009 68.705,119.258 68.233,119.420 68.098 C 119.583 67.963,119.779 67.601,119.857 67.293 C 119.934 66.984,120.169 66.471,120.380 66.152 C 121.043 65.146,121.292 64.715,121.612 64.022 C 121.783 63.651,122.077 63.220,122.264 63.065 C 122.452 62.909,122.608 62.671,122.612 62.535 C 122.618 62.283,124.535 59.264,125.056 58.685 C 125.213 58.510,125.638 57.914,125.999 57.361 C 126.843 56.069,129.110 53.164,130.920 51.053 C 134.651 46.705,138.974 42.494,142.967 39.322 C 144.111 38.413,145.194 37.538,145.375 37.379 C 145.751 37.047,146.183 36.751,149.893 34.290 C 150.960 33.581,152.101 32.818,152.427 32.593 C 152.753 32.368,153.063 32.184,153.116 32.184 C 153.169 32.184,153.850 31.796,154.629 31.323 C 155.409 30.849,156.379 30.309,156.786 30.123 C 157.546 29.775,157.964 29.535,158.995 28.854 C 159.321 28.638,159.719 28.462,159.879 28.462 C 160.039 28.462,160.560 28.260,161.037 28.014 C 161.514 27.767,162.594 27.268,163.437 26.905 C 164.280 26.541,165.265 26.113,165.627 25.953 C 166.901 25.386,169.251 24.521,169.517 24.520 C 169.665 24.519,170.068 24.371,170.413 24.192 C 171.041 23.864,172.379 23.451,174.822 22.829 C 175.545 22.646,176.462 22.359,176.860 22.192 C 177.259 22.025,178.276 21.790,179.122 21.671 C 179.967 21.551,180.833 21.359,181.046 21.246 C 181.258 21.132,182.310 20.931,183.382 20.800 C 184.454 20.668,185.698 20.464,186.146 20.345 C 186.594 20.226,188.850 19.986,191.159 19.812 C 193.467 19.638,195.408 19.444,195.470 19.381 C 195.680 19.171,203.782 19.263,204.855 19.488 M234.266 59.001 C 234.089 59.215,233.953 59.876,233.947 60.556 L 233.935 61.740 240.888 68.637 C 248.486 76.174,248.361 76.084,250.107 75.288 C 251.032 74.867,251.112 72.494,250.217 72.015 C 249.992 71.895,249.808 71.652,249.808 71.476 C 249.808 71.299,249.714 71.155,249.599 71.155 C 249.483 71.155,248.867 70.601,248.230 69.925 C 247.593 69.249,246.946 68.584,246.793 68.447 C 245.605 67.388,242.146 63.847,242.146 63.690 C 242.146 63.581,242.058 63.492,241.951 63.492 C 241.776 63.492,240.659 62.403,238.865 60.482 C 238.500 60.090,238.115 59.770,238.011 59.770 C 237.906 59.770,237.678 59.556,237.504 59.294 C 237.071 58.642,234.740 58.431,234.266 59.001 M214.227 68.837 C 213.354 69.307,212.370 70.548,212.370 71.178 C 212.370 71.721,229.775 89.570,233.609 92.957 C 234.030 93.329,235.075 94.388,235.933 95.311 C 237.417 96.907,239.299 97.742,239.299 96.803 C 239.299 96.701,239.595 96.307,239.956 95.929 C 241.242 94.584,241.784 95.243,228.188 81.615 C 215.420 68.817,214.992 68.425,214.227 68.837 M235.875 69.426 C 234.845 69.830,228.116 77.066,228.771 77.066 C 228.874 77.066,229.793 77.909,230.813 78.939 L 232.669 80.812 236.094 77.415 C 237.977 75.547,239.518 73.921,239.518 73.801 C 239.518 73.682,239.667 73.502,239.849 73.400 C 240.357 73.116,236.445 69.203,235.875 69.426 M214.137 79.440 C 213.652 79.509,212.698 80.433,212.698 80.834 C 212.698 80.925,214.311 82.625,216.282 84.611 C 220.831 89.194,221.336 90.859,218.177 90.859 C 217.319 90.859,214.778 88.884,214.778 88.218 C 214.778 88.105,214.637 88.013,214.465 88.013 C 214.292 88.013,214.088 87.816,214.012 87.575 C 213.936 87.334,213.790 87.137,213.689 87.137 C 213.587 87.137,212.691 86.316,211.697 85.312 C 210.034 83.632,209.862 83.514,209.528 83.834 C 209.329 84.025,208.619 84.692,207.951 85.316 C 206.065 87.077,205.993 86.877,209.965 90.890 C 213.551 94.513,213.869 94.992,213.574 96.335 C 213.110 98.444,211.782 97.843,207.517 93.594 C 203.332 89.425,203.704 89.567,201.802 91.414 C 199.813 93.345,199.758 93.179,203.702 97.138 C 207.900 101.353,208.491 102.631,206.506 103.200 C 205.108 103.601,204.407 103.154,200.897 99.619 C 197.093 95.788,197.364 95.868,195.312 97.970 L 193.713 99.607 197.459 103.366 L 201.204 107.125 201.204 108.144 C 201.204 109.430,200.939 109.688,199.615 109.688 L 198.552 109.688 194.814 105.957 C 191.419 102.567,191.045 102.257,190.722 102.561 C 186.947 106.112,186.918 105.560,191.107 109.780 C 194.738 113.437,195.077 113.950,194.711 115.228 C 194.129 117.257,192.776 116.648,188.563 112.463 C 184.280 108.207,184.857 108.424,182.926 110.342 C 180.925 112.329,180.832 112.042,184.768 115.989 C 188.852 120.085,189.168 120.577,188.380 121.620 C 188.120 121.964,187.793 122.058,186.857 122.058 L 185.665 122.058 182.214 118.615 C 178.270 114.680,178.400 114.729,176.718 116.541 C 176.157 117.145,175.508 117.820,175.275 118.041 C 174.768 118.522,174.481 118.165,179.027 122.701 C 183.055 126.720,183.597 128.517,180.780 128.516 L 179.639 128.516 175.938 124.797 L 172.236 121.078 171.175 122.140 C 169.372 123.942,169.348 126.102,171.108 127.966 C 172.570 129.513,172.505 129.730,169.774 132.470 C 166.083 136.172,166.009 137.216,169.209 140.416 L 171.213 142.419 172.595 142.419 C 174.139 142.419,173.951 142.545,177.204 139.354 C 179.966 136.645,179.751 136.680,181.790 138.615 C 182.703 139.482,183.665 139.732,185.264 139.518 C 186.227 139.389,230.104 95.960,230.104 95.137 C 230.104 94.479,214.722 79.358,214.137 79.440 " stroke="none" fill="#2f6ec3" fill-rule="evenodd"></path><path id="path4" d="M163.704 76.932 C 159.648 79.425,158.950 84.838,162.267 88.068 C 162.730 88.519,163.217 88.889,163.349 88.889 C 163.480 88.889,163.838 89.086,164.144 89.327 C 165.054 90.043,168.876 89.970,169.896 89.217 C 170.304 88.916,170.748 88.670,170.883 88.670 C 171.206 88.670,172.069 87.717,172.926 86.415 C 173.821 85.056,173.978 81.205,173.180 80.191 C 172.939 79.885,172.742 79.512,172.742 79.363 C 172.742 79.011,170.969 77.377,170.386 77.192 C 170.139 77.114,169.881 76.906,169.814 76.729 C 169.585 76.135,164.739 76.296,163.704 76.932 M182.157 78.335 C 180.155 79.332,179.310 80.353,179.310 81.775 C 179.310 83.208,180.258 84.946,181.041 84.949 C 181.233 84.950,181.672 85.098,182.017 85.278 C 182.732 85.651,183.601 85.706,183.795 85.392 C 183.867 85.275,184.321 85.073,184.803 84.943 C 185.448 84.769,185.734 84.551,185.890 84.116 C 186.006 83.791,186.248 83.263,186.427 82.944 C 186.943 82.028,186.185 79.256,185.420 79.256 C 185.301 79.256,184.934 79.056,184.603 78.812 C 183.946 78.325,182.674 78.077,182.157 78.335 M167.816 79.037 C 168.298 79.269,168.840 79.463,169.021 79.467 C 170.083 79.491,170.662 80.767,170.662 83.080 L 170.662 85.295 169.896 85.988 C 168.068 87.642,163.328 87.003,163.328 85.102 C 163.328 84.994,163.190 84.594,163.021 84.215 C 162.538 83.128,162.473 82.576,162.797 82.307 C 162.962 82.170,163.157 81.740,163.230 81.351 C 163.393 80.484,164.308 79.583,165.234 79.379 C 165.614 79.296,166.042 79.086,166.186 78.913 C 166.523 78.507,166.755 78.524,167.816 79.037 M183.834 81.568 C 183.906 81.757,183.853 82.157,183.716 82.459 C 183.191 83.610,181.784 82.732,182.242 81.539 C 182.407 81.108,183.667 81.132,183.834 81.568 M179.513 91.501 C 173.862 92.606,173.629 101.610,179.185 104.207 C 181.087 105.096,183.269 104.975,183.590 103.962 C 183.661 103.740,183.869 103.558,184.053 103.558 C 184.237 103.558,184.438 103.364,184.500 103.127 C 184.561 102.890,184.794 102.639,185.015 102.569 C 185.237 102.498,185.479 102.249,185.554 102.014 C 185.628 101.779,185.839 101.587,186.023 101.587 C 186.207 101.587,186.409 101.390,186.472 101.149 C 186.535 100.909,186.725 100.712,186.895 100.712 C 187.064 100.712,187.297 100.465,187.411 100.164 C 187.526 99.863,187.745 99.616,187.898 99.615 C 189.722 99.604,188.049 93.121,186.059 92.489 C 185.841 92.420,185.509 92.211,185.323 92.024 C 184.665 91.366,181.608 91.091,179.513 91.501 M183.689 94.208 C 187.935 96.675,185.789 102.630,180.918 101.899 C 179.899 101.746,178.440 100.858,178.430 100.383 C 178.427 100.263,178.232 99.918,177.997 99.617 C 177.490 98.969,177.392 96.971,177.845 96.513 C 178.002 96.354,178.322 95.894,178.556 95.491 C 178.949 94.815,180.115 94.009,181.171 93.683 C 181.805 93.487,182.809 93.697,183.689 94.208 M164.921 95.392 C 163.639 95.640,162.233 97.508,162.233 98.963 C 162.233 100.443,163.132 102.025,163.974 102.025 C 164.188 102.025,164.623 102.229,164.939 102.478 C 165.544 102.953,166.085 102.912,166.934 102.324 C 167.172 102.160,167.534 102.025,167.739 102.025 C 168.187 102.025,169.020 101.026,169.020 100.490 C 169.020 100.280,169.168 99.986,169.349 99.836 C 169.717 99.530,169.791 98.618,169.464 98.416 C 169.347 98.344,169.145 97.890,169.015 97.408 C 168.848 96.787,168.607 96.458,168.188 96.277 C 167.863 96.137,167.362 95.845,167.075 95.630 C 166.575 95.255,165.974 95.188,164.921 95.392 M166.266 98.436 C 166.801 98.642,166.700 99.598,166.119 99.818 C 165.513 100.047,165.079 99.740,165.079 99.079 C 165.079 98.331,165.458 98.126,166.266 98.436 M240.578 101.591 C 237.809 103.021,236.516 107.285,238.226 109.349 C 239.795 111.242,241.194 111.781,243.802 111.495 C 246.570 111.192,249.117 106.964,247.792 104.871 C 247.602 104.570,247.372 104.080,247.283 103.781 C 246.632 101.614,242.898 100.394,240.578 101.591 M244.390 104.778 C 245.751 106.068,245.459 107.710,243.720 108.547 C 242.611 109.080,240.613 108.540,240.613 107.708 C 240.613 107.457,240.507 107.053,240.378 106.811 C 240.099 106.290,240.784 104.610,241.429 104.235 C 242.295 103.731,243.522 103.956,244.390 104.778 M233.826 110.506 C 232.909 110.858,232.097 111.743,231.768 112.749 C 231.267 114.281,231.314 114.637,232.253 116.435 C 232.593 117.086,235.153 117.875,235.773 117.519 C 236.087 117.339,236.595 117.132,236.903 117.059 C 237.816 116.842,238.739 115.270,238.734 113.938 C 238.726 111.590,235.987 109.675,233.826 110.506 M235.687 114.176 C 235.687 115.109,234.598 115.273,234.262 114.391 C 233.969 113.619,234.163 113.371,234.996 113.452 C 235.603 113.511,235.687 113.599,235.687 114.176 M205.638 125.592 C 205.367 125.884,205.145 126.360,205.145 126.649 C 205.145 127.003,205.305 127.222,205.638 127.323 C 206.643 127.628,208.210 129.853,208.210 130.974 C 208.210 135.238,201.231 136.573,200.098 132.526 C 199.845 131.621,199.453 131.238,199.453 131.895 C 199.453 132.068,199.273 132.266,199.054 132.336 C 195.919 133.331,199.830 137.931,203.812 137.931 C 205.911 137.931,209.524 135.939,209.524 134.782 C 209.524 134.624,209.721 134.318,209.962 134.100 C 210.639 133.486,210.614 128.818,209.927 127.667 C 208.494 125.266,206.730 124.413,205.638 125.592 M190.914 140.414 C 190.914 140.575,190.680 140.813,190.395 140.944 C 189.655 141.280,189.446 142.270,190.027 142.677 C 190.274 142.850,190.476 143.110,190.476 143.256 C 190.476 143.401,190.660 143.864,190.884 144.283 C 192.423 147.159,188.560 150.722,185.413 149.329 C 183.636 148.544,183.154 147.808,183.062 145.744 C 182.984 143.974,182.973 143.946,182.226 143.459 C 180.589 142.393,180.194 142.807,180.190 145.594 C 180.179 152.404,188.908 154.828,192.848 149.109 C 194.419 146.828,193.509 141.046,191.455 140.258 C 190.959 140.067,190.914 140.080,190.914 140.414 M202.838 143.206 C 202.602 143.298,202.084 143.381,201.687 143.389 C 200.868 143.407,199.891 144.229,199.891 144.900 C 199.891 145.132,199.734 145.451,199.543 145.610 C 198.171 146.748,200.474 149.986,202.774 150.152 C 205.393 150.341,207.916 146.783,206.240 145.265 C 205.999 145.048,205.802 144.756,205.802 144.617 C 205.802 143.823,203.753 142.848,202.838 143.206 M203.680 146.196 C 203.822 146.924,203.699 147.067,202.846 147.162 C 202.315 147.222,202.177 147.147,202.123 146.771 C 201.970 145.697,203.473 145.143,203.680 146.196 " stroke="none" fill="#760404" fill-rule="evenodd"></path></g></svg>